PathFileType	4	(X/Y/Z)	C:\Documents and Settings\mvidt\Desktop\Forward_reach_ACS_12-5-11\acs_static-redo2.trc
DataRate	CameraRate	NumFrames	NumMarkers	Units	OrigDataRate	OrigDataStartFrame	OrigNumFrames
200.00	200.00	      32	10	mm	200.00	751	      2000
Frame#	Time	R.Clavicle			C7			R.Shoulder			R.Bicep			R.Elbow.Lateral			R.Forearm			R.Radius			Handle			R.Elbow.Medial			R.Ulna			
		X1	Y1	Z1	X2	Y2	Z2	X3	Y3	Z3	X4	Y4	Z4	X5	Y5	Z5	X6	Y6	Z6	X7	Y7	Z7	X8	Y8	Z8	X9	Y9	Z9	X10	Y10	Z10	

751	3.750	-253.38034	402.59845	328.54068	-389.88974	399.92899	419.58704	-261.22873	247.98648	326.25394	-97.73211	259.14874	276.48312	-6.52785	229.72336	209.64795	36.58693	277.92657	307.32748	133.74135	359.96851	413.03842	201.02252	414.04526	509.37445	-8.96408	312.05240	180.01923	193.41226	308.77267	373.94400	
752	3.755	-253.31651	402.37939	328.11902	-389.88974	399.92899	419.58704	-261.12634	247.93707	326.36600	-97.73211	259.14874	276.48312	-6.51885	229.72052	209.61244	36.59159	277.91296	307.31430	133.74135	359.96851	413.03842	201.04698	414.09680	509.31213	-8.96408	312.05240	180.01923	193.41226	308.77267	373.94400	
753	3.760	-253.31651	402.37939	328.11902	-389.88974	399.92899	419.58704	-261.12634	247.93707	326.36600	-97.96877	259.27353	277.48602	-6.50985	229.71770	209.57693	36.59626	277.89929	307.30112	133.81395	360.04297	413.12094	201.04698	414.09680	509.31213	-8.96408	312.05240	180.01923	193.41226	308.77267	373.94400	
754	3.765	-253.79362	402.49097	328.18124	-389.11151	399.51059	419.33264	-261.22873	247.98648	326.25394	-97.73211	259.14874	276.48312	-6.50085	229.71486	209.54144	36.60092	277.88568	307.28796	133.74135	359.96851	413.03842	201.04698	414.09680	509.31213	-8.96408	312.05240	180.01923	193.41226	308.77267	373.94400	
755	3.770	-253.79437	402.52252	327.88797	-389.11151	399.51059	419.33264	-261.12634	247.93707	326.36600	-97.09753	260.62164	276.83072	-6.49186	229.71202	209.50592	36.60559	277.87204	307.27481	133.74135	359.96851	413.03842	201.04698	414.09680	509.31213	-8.96408	312.05240	180.01923	193.41226	308.77267	373.94400	
756	3.775	-253.79437	402.52252	327.88797	-389.11151	399.51059	419.33264	-261.31952	248.13445	326.55322	-97.73211	259.14874	276.48312	-6.48286	229.70920	209.47043	36.61025	277.85840	307.26163	133.74135	359.96851	413.03842	201.13097	414.00986	509.25723	-8.96408	312.05240	180.01923	193.41226	308.77267	373.94400	
757	3.780	-253.31651	402.37939	328.11902	-389.11151	399.51059	419.33264	-261.31952	248.13445	326.55322	-97.96877	259.27353	277.48602	-6.47386	229.70634	209.43491	36.61492	277.84476	307.24847	133.83731	359.94843	412.90280	201.04698	414.09680	509.31213	-8.96408	312.05240	180.01923	193.54343	308.49857	373.71021	
758	3.785	-253.31651	402.37939	328.11902	-389.11151	399.51059	419.33264	-261.31952	248.13445	326.55322	-97.96877	259.27353	277.48602	-6.46486	229.70352	209.39941	36.61958	277.83112	307.23529	133.83731	359.94843	412.90280	201.13097	414.00986	509.25723	-8.96408	312.05240	180.01923	193.54343	308.49857	373.71021	
759	3.790	-253.31651	402.37939	328.11902	-389.88974	399.92899	419.58704	-260.98523	247.93608	326.48514	-97.96877	259.27353	277.48602	-6.45586	229.70068	209.36389	36.62424	277.81747	307.22211	133.83731	359.94843	412.90280	201.13097	414.00986	509.25723	-9.03662	312.38803	179.90900	193.54343	308.49857	373.71021	
760	3.795	-253.26785	402.33038	328.46478	-389.11151	399.51059	419.33264	-260.98523	247.93608	326.48514	-97.96877	259.27353	277.48602	-6.44686	229.69786	209.32840	36.62891	277.80383	307.20892	133.82799	359.91519	413.01685	201.13097	414.00986	509.25723	-9.01659	312.65955	179.92285	193.54343	308.49857	373.71021	
761	3.800	-253.31651	402.37939	328.11902	-389.88974	399.92899	419.58704	-260.98523	247.93608	326.48514	-97.09753	260.62164	276.83072	-6.43786	229.69501	209.29288	36.63357	277.79019	307.19577	133.83731	359.94843	412.90280	201.28920	413.93399	509.23416	-9.21059	312.69278	179.66811	193.54343	308.49857	373.71021	
762	3.805	-253.31651	402.37939	328.11902	-389.88974	399.92899	419.58704	-260.98523	247.93608	326.48514	-97.09753	260.62164	276.83072	-6.42886	229.69218	209.25739	36.63357	277.79019	307.19577	133.81552	360.05374	412.81815	201.41284	413.79745	509.03955	-9.21059	312.69278	179.66811	193.78613	308.18573	373.53430	
763	3.810	-253.31651	402.37939	328.11902	-389.06384	399.36423	418.92017	-260.98523	247.93608	326.48514	-97.09753	260.62164	276.83072	-6.41987	229.68935	209.22186	36.63357	277.79019	307.19577	133.71954	360.07382	412.95380	201.47491	413.49994	508.92755	-9.15094	312.91556	179.73599	193.54343	308.49857	373.71021	
764	3.815	-253.26785	402.33038	328.46478	-389.06384	399.36423	418.92017	-260.98523	247.93608	326.48514	-97.09753	260.62164	276.83072	-6.41087	229.68652	209.18637	36.63357	277.79019	307.19577	133.81552	360.05374	412.81815	201.35503	413.80630	509.11871	-9.04044	312.89053	179.54747	193.54343	308.49857	373.71021	
765	3.820	-253.26785	402.33038	328.46478	-389.06384	399.36423	418.92017	-260.98523	247.93608	326.48514	-97.09753	260.62164	276.83072	-6.40187	229.68367	209.15085	36.63357	277.79019	307.19577	133.81552	360.05374	412.81815	201.57199	413.55899	508.97464	-9.15094	312.91556	179.73599	193.54343	308.49857	373.71021	
766	3.825	-253.26785	402.33038	328.46478	-389.06384	399.36423	418.92017	-260.98523	247.93608	326.48514	-97.09753	260.62164	276.83072	-6.39287	229.68085	209.11536	36.69167	277.46161	306.64700	133.81552	360.05374	412.81815	201.67590	413.43851	508.91458	-9.04044	312.89053	179.54747	193.07039	308.24573	372.91779	
767	3.830	-253.26785	402.33038	328.46478	-389.88974	399.92899	419.58704	-260.98523	247.93608	326.48514	-97.82870	259.54465	276.49512	-6.38387	229.67801	209.07983	36.69167	277.46161	306.64700	133.62018	359.99792	412.73053	201.83374	413.29147	508.87039	-9.04044	312.89053	179.54747	193.16830	308.43747	373.26511	
768	3.835	-253.26785	402.33038	328.46478	-389.88974	399.92899	419.58704	-260.98523	247.93608	326.48514	-97.82870	259.54465	276.49512	-6.37487	229.67519	209.04434	37.16100	277.47729	307.68744	133.62018	359.99792	412.73053	201.53171	413.63327	508.89798	-9.04044	312.89053	179.54747	193.16830	308.43747	373.26511	
769	3.840	-253.26785	402.33038	328.46478	-389.88974	399.92899	419.58704	-260.98523	247.93608	326.48514	-97.82870	259.54465	276.49512	-6.36587	229.67233	209.00882	37.16100	277.47729	307.68744	133.62018	359.99792	412.73053	201.43994	413.69412	508.84778	-9.04044	312.89053	179.54747	193.16830	308.43747	373.26511	
770	3.845	-253.26785	402.33038	328.46478	-389.88974	399.92899	419.58704	-261.09564	247.98723	326.36539	-97.82870	259.54465	276.49512	-6.35687	229.66953	208.97333	36.63357	277.79019	307.19577	133.39436	359.84622	412.50043	201.37186	413.64713	508.77722	-9.13993	312.85135	179.41942	193.50723	308.53836	372.91592	
771	3.850	-253.26785	402.33038	328.46478	-389.88974	399.92899	419.58704	-261.09564	247.98723	326.36539	-98.55934	258.46844	276.15982	-6.34787	229.66667	208.93781	36.63357	277.79019	307.19577	133.74414	359.84409	412.39471	201.58878	413.40576	508.52924	-9.13993	312.85135	179.41942	193.39615	308.38580	372.60748	
772	3.855	-253.58044	402.45099	328.06076	-389.88974	399.92899	419.58704	-261.05066	247.97995	326.12662	-98.55934	258.46844	276.15982	-6.33888	229.66385	208.90231	36.63357	277.79019	307.19577	133.70210	359.91394	412.29416	201.52145	413.57739	508.74823	-9.13993	312.85135	179.41942	193.39615	308.38580	372.60748	
773	3.860	-253.13947	402.54059	328.06168	-389.88974	399.92899	419.58704	-261.09564	247.98723	326.36539	-98.55934	258.46844	276.15982	-6.32988	229.66100	208.86679	36.63357	277.79019	307.19577	133.50830	360.00311	412.17447	201.52145	413.57739	508.74823	-9.20679	312.61667	179.34267	194.73969	309.77258	373.69775	
774	3.865	-253.55328	402.64630	327.88235	-389.88974	399.92899	419.58704	-261.09564	247.98723	326.36539	-99.01021	257.26657	275.89651	-6.32088	229.65819	208.83130	36.63357	277.79019	307.19577	133.50830	360.00311	412.17447	201.53520	413.63556	508.69574	-9.30561	312.65875	179.21199	194.73969	309.77258	373.69775	
775	3.870	-253.45221	402.66107	327.65756	-389.88974	399.92899	419.58704	-261.23035	248.12065	326.18198	-98.55934	258.46844	276.15982	-6.31188	229.65533	208.79578	36.09702	277.77213	306.00687	133.86871	359.65158	412.07693	201.53520	413.63556	508.69574	-9.30561	312.65875	179.21199	194.87218	310.12540	373.28934	
776	3.875	-253.13947	402.54059	328.06168	-389.88974	399.92899	419.58704	-261.23035	248.12065	326.18198	-98.55934	258.46844	276.15982	-6.30288	229.65251	208.76028	36.72063	277.30103	306.34103	133.80132	359.64996	411.96893	201.46165	413.68866	508.63934	-9.27220	312.64807	179.02513	194.87218	310.12540	373.28934	
777	3.880	-253.18829	402.58945	327.71582	-389.88974	399.92899	419.58704	-261.23035	248.12065	326.18198	-98.55934	258.46844	276.15982	-6.29388	229.64966	208.72476	36.72063	277.30103	306.34103	133.63469	359.91232	412.18619	201.42027	413.73941	508.56131	-9.27220	312.64807	179.02513	194.87218	310.12540	373.28934	
778	3.885	-253.18829	402.58945	327.71582	-389.88974	399.92899	419.58704	-261.23035	248.12065	326.18198	-98.55934	258.46844	276.15982	-6.28488	229.64684	208.68927	36.09702	277.77213	306.00687	133.82306	359.63528	411.57895	201.70317	413.66672	508.49496	-9.27220	312.64807	179.02513	194.87218	310.12540	373.28934	
779	3.890	-253.18829	402.58945	327.71582	-389.11151	399.51059	419.33264	-261.23035	248.12065	326.18198	-98.55934	258.46844	276.15982	-6.27588	229.64401	208.65376	37.03610	276.77707	306.28842	133.63261	359.74609	411.50140	201.69322	413.48279	508.37280	-8.93538	312.39157	178.69450	195.08661	310.18884	373.01361	
780	3.895	-253.47076	402.69592	327.37430	-389.88974	399.92899	419.58704	-261.23035	248.12065	326.18198	-97.97569	259.54248	276.14282	-6.26689	229.64117	208.61826	37.22129	277.02139	306.63693	133.48611	359.87573	411.66971	201.94041	413.62317	508.23724	-9.04704	312.47037	178.86827	195.18028	309.98224	372.86490	
781	3.900	-253.13947	402.54059	328.06168	-389.11151	399.51059	419.33264	-261.23035	248.12065	326.18198	-98.55934	258.46844	276.15982	-6.25789	229.63834	208.58275	36.72063	277.30103	306.34103	133.48611	359.87573	411.66971	202.65173	413.40836	507.61249	-9.04704	312.47037	178.86827	195.08661	310.18884	373.01361	
782	3.905	-253.18829	402.58945	327.71582	-389.11151	399.51059	419.33264	-261.23035	248.12065	326.18198	-97.97569	259.54248	276.14282	-6.24889	229.63550	208.54724	36.72063	277.30103	306.34103	133.34607	359.97861	411.65674	202.54651	413.56064	507.67648	-9.04704	312.47037	178.86827	195.08661	310.18884	373.01361	
